<?xml version="1.0" encoding="utf-8"?>
<!-- Generator: Adobe Illustrator 17.0.2, SVG Export Plug-In . SVG Version: 6.00 Build 0)  -->
<!DOCTYPE svg PUBLIC "-//W3C//DTD SVG 1.1//EN" "http://www.w3.org/Graphics/SVG/1.1/DTD/svg11.dtd">
<svg version="1.1" id="Lager_1" xmlns="http://www.w3.org/2000/svg" xmlns:xlink="http://www.w3.org/1999/xlink" x="0px" y="0px"
	 width="118px" height="35px" viewBox="0 0 118 35" enable-background="new 0 0 118 35" xml:space="preserve">
<g>
	<path fill="#E4002B" d="M16.103,6.14c-0.682-0.472-1.522-0.63-2.309-0.63c-1.994,0-3.201,1.102-3.201,3.253v2.362h4.88v5.248h-4.88
		v18.208H4.191V16.373h-3.83v-5.248h3.83V8.344C4.191,3.044,7.497,0,12.482,0c1.522,0,2.676,0.21,3.621,0.63V6.14z"/>
	<path fill="#E4002B" d="M33.68,17.526c-0.892-0.525-2.047-0.787-3.254-0.787c-2.204,0-3.988,1.155-4.46,3.306V34.58h-6.507V11.124
		h6.507v2.309c0.997-1.679,2.939-2.833,5.248-2.833c1.101,0,2.098,0.209,2.466,0.42V17.526z"/>
	<path fill="#E4002B" d="M50.155,26.5c-0.577-1.26-2.361-2.046-4.25-2.046c-2.047,0-4.146,0.892-4.146,2.886
		c0,2.046,2.099,2.886,4.146,2.886c1.889,0,3.673-0.788,4.25-2.047V26.5z M50.155,34.581v-1.26C49.368,34.109,47.007,35,44.435,35
		c-4.722,0-8.71-2.728-8.71-7.608c0-4.46,3.988-7.504,9.078-7.504c2.047,0,4.408,0.683,5.352,1.365v-1.732
		c0-1.994-1.207-3.621-3.83-3.621c-1.837,0-2.939,0.84-3.464,2.204h-6.192c0.682-4.25,4.513-7.504,9.866-7.504
		c6.244,0,9.865,3.411,9.865,9.026v14.955H50.155z"/>
	<path fill="#E4002B" d="M86.421,10.6c4.827,0,7.714,3.358,7.714,8.658v15.323h-6.507V20.623c0-2.519-1.102-4.198-3.358-4.198
		c-1.68,0-3.201,1.049-3.621,3.043v15.113h-6.56V20.623c0-2.519-1.049-4.198-3.305-4.198c-1.679,0-3.254,1.049-3.673,3.043v15.113
		h-6.507V11.125h6.507v1.941c1.154-1.469,3.305-2.466,5.929-2.466c2.781,0,4.985,1.26,6.297,2.991
		C80.859,11.912,83.115,10.6,86.421,10.6"/>
</g>
<polygon fill="#E4002B" points="104.468,2.361 97.227,13.906 103.313,13.906 107.459,7.295 111.552,13.906 117.639,13.906 
	110.397,2.361 "/>
<g>
</g>
<g>
</g>
<g>
</g>
<g>
</g>
<g>
</g>
<g>
</g>
<g>
</g>
<g>
</g>
<g>
</g>
<g>
</g>
<g>
</g>
<g>
</g>
<g>
</g>
<g>
</g>
<g>
</g>
</svg>
